# xmcd
#
# Track frame offsets: 
#        150
#        20953
#        43210
#        65646
#        86946
#        105748
#        128319
#        155586
#        172128
#        194358
#
# Disc length: 2894 seconds
#
# Revision: 0
# Processed by: cddbd v1.5.2PL0 Copyright (c) Steve Scherf et al.
# Submitted via: ExactAudioCopy v0.99pb3
#
DISCID=910b4c0a
DTITLE=Level Route - Level Route
DYEAR=2007
DGENRE=Texas Country
TTITLE0=Rearview Mirror
TTITLE1=Rather Be With You
TTITLE2=Make Me Smile Tonight
TTITLE3=Dings 
TTITLE4=Rolling Stone
TTITLE5=Hotel Nightstand
TTITLE6=Terminator#7
TTITLE7=Goodnight 
TTITLE8=Tired 
TTITLE9=Roll On 
EXTD=
EXTT0=
EXTT1=
EXTT2=
EXTT3=
EXTT4=
EXTT5=
EXTT6=
EXTT7=
EXTT8=
EXTT9=
PLAYORDER=
